# xmcd
#
# Track frame offsets:
#	150
#	12910
#	24470
#	42912
#	54067
#	70020
#	85715
#	99632
#	112012
#	125817
#	142290
#	162792
#	176035
#	191977
#	208085
#	221590
#	234577
#	253065
#	265860
#	278695
#	293630
#	307792
#
# Disc length: 4286 seconds
#
# Revision: 4
# Processed by: cddbd v1.5.1PL0 Copyright (c) Steve Scherf et al.
# Submitted via: audiograbber 1.83.01
#
DISCID=4210bc16
DTITLE=Merle HAGGARD - Back To The Barrooms - The Way I Am
DYEAR=1980
DGENRE=Country
TTITLE0=Misery And Gin
TTITLE1=Back To The Barrooms Again
TTITLE2=Make-Up And Faded Blue Jeans
TTITLE3=Ever-Changing Woman
TTITLE4=Easy Come, Easy Go
TTITLE5=I Don't Want To Sober Up Tonight
TTITLE6=Can't Break The Habit
TTITLE7=Our Paths May Never Cross
TTITLE8=I Don't Have Any More Love Songs
TTITLE9=Leonard
TTITLE10=I Think I'll Just Stay Here And Drink
TTITLE11=The Way I Am
TTITLE12=Sky-Bo
TTITLE13=No One To Sing For
TTITLE14=(Remember Me} I'm The One Who Loves You
TTITLE15=Life's Just Not The Way It Used To Be
TTITLE16=Wake Up
TTITLE17=Where Have You Been
TTITLE18=Take Me Back And Try Me One More Time
TTITLE19=I'll Always Be Glad To Take You Back
TTITLE20=It Makes No Difference Now
TTITLE21=It's Been So Long Darlin'
EXTD=
EXTT0=
EXTT1=
EXTT2=
EXTT3=
EXTT4=
EXTT5=
EXTT6=
EXTT7=
EXTT8=
EXTT9=
EXTT10=
EXTT11=
EXTT12=
EXTT13=
EXTT14=
EXTT15=
EXTT16=
EXTT17=
EXTT18=
EXTT19=
EXTT20=
EXTT21=
PLAYORDER=
